<svg fill="none" height="37" viewBox="0 0 184 37" width="184" xmlns="http://www.w3.org/2000/svg"><g fill="#2b3140"><path d="m74.4319 29.5967c-.9895 0-1.8931-.2742-2.705-.8273-.7867-.5836-1.3655-1.3957-1.746-2.4463l-7.2426-19.51011h4.4053l6.461 18.02811c.1168.2891.2487.4922.391.609.1472.1168.3044.1724.482.1724.2031 0 .3655-.0556.4823-.1724.1472-.1168.2741-.3199.3907-.609l6.5018-18.02302h4.3191l-7.2427 19.51002c-.4059 1.0456-1.0049 1.8627-1.7916 2.4463-.7817.5481-1.6851.8223-2.7053.8223z"/><path d="m90.7188 29.5721v-22.72786h4.0909v22.73286h-4.0909z"/><path d="m100.112 29.5724v-3.5224h10.836c.71 0 1.314-.1472 1.822-.4466.533-.3249.934-.741 1.198-1.2487.263-.5075.401-1.0404.401-1.6038 0-.5329-.117-1.0252-.356-1.4718-.238-.4773-.609-.8478-1.111-1.1167-.472-.2994-1.051-.4466-1.731-.4466h-4.578c-1.452 0-2.726-.2385-3.817-.7156-1.066-.5077-1.908-1.2335-2.532-2.1826-.5941-.949-.8885-2.1112-.8885-3.4767 0-1.1572.2791-2.228.8425-3.2075.563-.97964 1.345-1.76633 2.355-2.36016 1.005-.62428 2.162-.93388 3.461-.93388h10.435v3.52234h-10.034c-.918 0-1.644.2842-2.177.8475-.533.5636-.797 1.2335-.797 2.005 0 .741.264 1.3956.797 1.959.563.5329 1.345.8019 2.355.8019h4.35c1.629 0 2.989.2692 4.085.8021 1.127.5075 1.97 1.2485 2.533 2.228.594.9795.888 2.1824.888 3.6087 0 1.2181-.294 2.36-.888 3.4309-.594 1.0406-1.421 1.8881-2.487 2.5428-1.035.6547-2.248.9795-3.639.9795h-11.323z"/><path d="m122.998 29.5967v-13.3992c0-1.7155.391-3.2888 1.177-4.7152.787-1.4261 1.919-2.5579 3.406-3.40552 1.487-.84758 3.274-1.26379 5.37-1.26379 1.02 0 2.035.1472 3.056.43649 1.019.26394 1.964.72581 2.837 1.39576.873.6395 1.573 1.51246 2.096 2.61896h.045c.584-1.1065 1.31-1.97946 2.183-2.61896.873-.66995 1.817-1.13691 2.837-1.39576 1.02-.28929 2.05-.43649 3.101-.43649 2.066 0 3.842.42127 5.324 1.26379 1.482.84253 2.619 1.97942 3.406 3.40552.787 1.4264 1.177 2.9947 1.177 4.7152v13.3992h-4.014v-13.3992c0-1.1065-.264-2.1114-.787-3.0096-.523-.9035-1.238-1.614-2.137-2.137-.873-.5227-1.878-.7866-3.009-.7866-1.107 0-2.122.2742-3.056.8273-.929.5227-1.675 1.2385-2.228 2.1367-.523.873-.787 1.8627-.787 2.9692v13.3992h-4.014v-13.3992c0-1.1065-.274-2.0962-.828-2.9692-.523-.9034-1.253-1.614-2.182-2.1367-.904-.5531-1.919-.8273-3.055-.8273-1.107 0-2.112.2639-3.01.7866-.873.523-1.574 1.2385-2.096 2.137-.523.9034-.787 1.9031-.787 3.0096v13.3992z"/><path clip-rule="evenodd" d="m163.546 17.1005c0-5.6489 4.578-10.22696 10.227-10.22696s10.227 4.57806 10.227 10.22696v2.2739c0 .2283-.01.4568-.02.6801h-16.343c0 2.8575 2.202 5.2075 4.999 5.4358h7.73v4.0503h-7.73c-5.116-.5634-9.09-4.9031-9.09-10.1662zm4.091-.2233c0-3.2634 2.644-5.9078 5.907-5.9078h.457c3.264 0 5.908 2.6444 5.908 5.9078z" fill-rule="evenodd"/></g><path d="m45.7004 24.1926h.0559l8.8007-4.6186c-2.619-1.7662-16.4039-8.552-21.7483-2.7966-.3603.3705-.7258.7714-1.0607 1.1674 5.6237.8577 10.5518 3.0807 13.9524 6.2478z" fill="#f9564e"/><path d="m41.5485 21.198 7.6588-4.304c-6.9076-2.8777-10.8055-2.0252-15.2313.7714-.2792.1727-.5279.3401-.7817.5432 3.091.5938 5.9029 1.6189 8.3542 2.9894z" fill="#565656" opacity=".2"/><path d="m24.9221 17.6348c5.5679-.3146 10.75.741 15.0081 2.7357h.0255s2.5631-2.0556 6.324-4.7354c3.7609-2.6494 6.2124-4.5628 6.2124-4.5628-1.9491-1.37045-6.7099-2.62407-9.6892-3.05039-8.8566-1.27902-16.0942 3.16719-18.9924 9.69919.391-.0304.7513-.0608 1.1116-.0863z" fill="#65ce90"/><path d="m24.9212 17.6351c4.2634-.2283 8.2983.3146 11.8613 1.482l3.4818-11.26242c-8.5218-.28423-15.9014 3.99432-18.4086 9.92262-.0255.0556-.0559.1115-.0559.1724 1.005-.142 2.0656-.2587 3.1214-.3146z" fill="#565656" opacity=".2"/><path d="m24.9206 17.6353c3.3699-.1726 6.6283.1979 9.6076.8832l4.9031-18.4188475c-3.8168-.3146885-7.9076.1116495-11.9172 1.3399175-11.0594 3.3904-17.57627 11.86123-15.739 19.70293 3.7609-1.9693 8.2728-3.223 13.1455-3.5072z" fill="#f4d30c"/><path d="m24.9212 17.6354c1.4768-.0864 2.9234-.0559 4.3445.0304l-6.0144-14.57156c-8.41 4.04513-13.0591 11.26246-11.4755 18.04826 3.7609-1.9693 8.273-3.223 13.1454-3.5071z" fill="#565656" opacity=".2"/><path d="m24.922 17.6357c.5582-.0304 1.142-.0304 1.7001-.0559-.472-1.1674-1.9236-4.6491-4.2075-8.72467-2.8423-5.01961-4.6237-8.212064-4.6237-8.212064-4.2075 1.598774-9.32868 4.364884-12.30796 7.384784-6.54226 6.66905-7.10056 14.79495-2.36515 20.83965 3.73044-6.1563 12.00351-10.6889 21.80421-11.2318z" fill="#19abd6"/><path d="m32.0271 26.1321-5.456 3.9081 1.9793-5.9585c-.6395-.1726-1.2789-.2589-1.9793-.2589-3.8979 0-7.0447 2.822-7.0447 6.2733 0 3.4767 3.1468 6.2733 7.0447 6.2733s7.0396-2.822 7.0396-6.2733c0-1.482-.609-2.8779-1.5836-3.964z" fill="#293745"/></svg>