<svg xmlns="http://www.w3.org/2000/svg" fill="none" viewBox="0 0 64 64" height="64" width="64">
<g clip-path="url(#clip0_1956_12942)">
<path stroke="black" fill="#EE5A29" d="M7.47929 15.4286L7.47898 15.4287C7.06451 15.5381 6.81646 15.9641 6.92625 16.3802C6.92626 16.3802 6.92627 16.3803 6.92629 16.3803L13.2917 40.4213C13.2918 40.4215 13.2918 40.4216 13.2919 40.4218L13.2919 40.422L12.8086 40.55C12.9185 40.9627 12.8137 41.4035 12.53 41.7229L7.47929 15.4286ZM7.47929 15.4286L8.55737 15.1432L43.1319 28.6005L19.7462 57.4064L14.963 58.6731C14.5468 58.7829 14.1208 58.5349 14.0114 58.1204L14.0113 58.1201L10.5897 45.1951C10.5896 45.1949 10.5896 45.1948 10.5896 45.1946C10.5236 44.9434 10.5876 44.6748 10.7593 44.4805L12.9039 42.0549C12.904 42.0549 12.9041 42.0548 12.9041 42.0547L7.47929 15.4286Z"></path>
<path stroke="black" fill="#F8AD40" d="M40.5459 7.47909L51.5367 48.9921L20.3886 57.2396L9.19847 14.9738L39.594 6.92555C39.5941 6.92553 39.5943 6.92549 39.5944 6.92547C40.0097 6.81593 40.4353 7.06319 40.5459 7.47909Z"></path>
<mask fill="white" id="path-3-inside-1_1956_12942">
<path d="M49.444 16.368L54.2236 47.6742C54.4344 49.0631 53.471 50.374 52.0821 50.5849L52.2998 52.1219C52.5119 53.5172 51.5536 54.8205 50.1583 55.0326L25.526 58.7802C23.7818 59.046 22.1527 57.8462 21.8869 56.102L16.6022 21.364C16.3914 19.9751 17.3548 18.6641 18.7437 18.4533L46.5346 14.2252C47.9235 14.0144 49.2332 14.9778 49.444 16.368Z"></path>
</mask>
<path fill="#FFE6C9" d="M49.444 16.368L54.2236 47.6742C54.4344 49.0631 53.471 50.374 52.0821 50.5849L52.2998 52.1219C52.5119 53.5172 51.5536 54.8205 50.1583 55.0326L25.526 58.7802C23.7818 59.046 22.1527 57.8462 21.8869 56.102L16.6022 21.364C16.3914 19.9751 17.3548 18.6641 18.7437 18.4533L46.5346 14.2252C47.9235 14.0144 49.2332 14.9778 49.444 16.368Z"></path>
<path mask="url(#path-3-inside-1_1956_12942)" fill="black" d="M49.444 16.368L48.4554 16.518L48.4555 16.5189L49.444 16.368ZM54.2236 47.6742L55.2123 47.5241L55.2121 47.5232L54.2236 47.6742ZM52.0821 50.5849L51.932 49.5962L50.9531 49.7448L51.092 50.7251L52.0821 50.5849ZM52.2998 52.1219L51.3096 52.2621L51.3112 52.2721L52.2998 52.1219ZM50.1583 55.0326L50.008 54.0439L50.0079 54.0439L50.1583 55.0326ZM25.526 58.7802L25.3756 57.7916L25.3753 57.7916L25.526 58.7802ZM21.8869 56.102L20.8983 56.2524L20.8984 56.2527L21.8869 56.102ZM16.6022 21.364L15.6135 21.5141L15.6136 21.5144L16.6022 21.364ZM18.7437 18.4533L18.8938 19.442L18.8941 19.4419L18.7437 18.4533ZM46.5346 14.2252L46.3846 13.2366L46.3842 13.2366L46.5346 14.2252ZM48.4555 16.5189L53.235 47.8251L55.2121 47.5232L50.4326 16.2171L48.4555 16.5189ZM53.2349 47.8242C53.363 48.6683 52.7737 49.4684 51.932 49.5962L52.2322 51.5735C54.1682 51.2797 55.5058 49.4579 55.2123 47.5241L53.2349 47.8242ZM51.092 50.7251L51.3097 52.2621L53.2899 51.9816L53.0722 50.4446L51.092 50.7251ZM51.3112 52.2721C51.4404 53.122 50.8567 53.9149 50.008 54.0439L50.3086 56.0212C52.2505 55.726 53.5835 53.9123 53.2885 51.9716L51.3112 52.2721ZM50.0079 54.0439L25.3756 57.7916L25.6764 59.7688L50.3087 56.0212L50.0079 54.0439ZM25.3753 57.7916C24.1779 57.9741 23.0582 57.1502 22.8755 55.9514L20.8984 56.2527C21.2472 58.5421 23.3858 60.1178 25.6766 59.7688L25.3753 57.7916ZM22.8756 55.9516L17.5908 21.2136L15.6136 21.5144L20.8983 56.2524L22.8756 55.9516ZM17.5909 21.2139C17.4628 20.3699 18.052 19.5697 18.8938 19.442L18.5936 17.4646C16.6575 17.7585 15.32 19.5803 15.6135 21.5141L17.5909 21.2139ZM18.8941 19.4419L46.685 15.2139L46.3842 13.2366L18.5933 17.4647L18.8941 19.4419ZM46.6847 15.2139C47.5279 15.0859 48.3274 15.6742 48.4554 16.518L50.4327 16.2181C50.139 14.2814 48.3192 12.9429 46.3846 13.2366L46.6847 15.2139Z"></path>
<path stroke="black" fill="#212121" d="M51.4959 50.1643L51.6126 50.9334L51.6126 50.9336C51.7832 52.0561 51.0123 53.1042 49.8903 53.2748L49.8902 53.2748L25.2579 57.0224L25.2576 57.0225C24.4844 57.1405 23.7618 56.609 23.6437 55.8352C23.5257 55.062 24.0572 54.3393 24.831 54.2212L51.4959 50.1643Z"></path>
<path stroke-width="0.8" stroke="black" fill="#212121" d="M26.5935 33.4147L26.5936 33.4147L26.5933 33.4129C26.5733 33.2833 26.6626 33.1618 26.7927 33.1423L26.7935 33.1422L43.2147 30.6429C43.2148 30.6429 43.2148 30.6429 43.2149 30.6429C43.3446 30.6234 43.4671 30.7142 43.4863 30.8422L43.4866 30.8436C43.5065 30.9733 43.4172 31.0947 43.2871 31.1143L43.2863 31.1144L26.8648 33.6137L26.8648 33.6137L26.8618 33.6141C26.8509 33.6159 26.8401 33.6168 26.8279 33.6168C26.7125 33.6168 26.611 33.5315 26.5935 33.4147Z"></path>
<path stroke-width="0.8" stroke="black" fill="#212121" d="M25.826 28.3628L25.826 28.3628L25.8257 28.361C25.8058 28.2313 25.8951 28.1099 26.0251 28.0903L26.0259 28.0902L42.4428 25.5929C42.4434 25.5928 42.444 25.5927 42.4446 25.5927C42.5808 25.5745 42.7002 25.6681 42.7188 25.7916L42.719 25.793C42.7389 25.9226 42.6496 26.0441 42.5195 26.0636L42.5188 26.0637L26.0972 28.5617L26.0972 28.5617L26.0942 28.5622C26.0837 28.5639 26.0716 28.5648 26.0603 28.5648C25.9449 28.5648 25.8434 28.4795 25.826 28.3628Z"></path>
<path stroke-width="0.8" stroke="black" fill="#212121" d="M27.3626 38.4685L27.3626 38.4685L27.3623 38.4667C27.3424 38.3371 27.4317 38.2156 27.5618 38.1961L27.5625 38.196L43.9807 35.6974C43.9813 35.6973 43.9819 35.6972 43.9825 35.6971C44.1187 35.679 44.2381 35.7726 44.2567 35.896L44.2569 35.8975C44.2768 36.0271 44.1875 36.1486 44.0574 36.1681L44.0567 36.1682L27.6338 38.6675L27.6338 38.6675L27.6308 38.668C27.6203 38.6696 27.6082 38.6706 27.5969 38.6706C27.4816 38.6706 27.38 38.5853 27.3626 38.4685Z"></path>
<path stroke="black" fill="#212121" d="M28.4229 44.7704L28.4229 44.7704L28.4226 44.7681C28.4111 44.6933 28.4626 44.6229 28.538 44.6116L28.5388 44.6115L29.8945 44.4058L29.8951 44.4057C30.6194 44.2948 31.2837 43.9336 31.7668 43.3867C31.7669 43.3866 31.767 43.3864 31.7672 43.3863L32.0769 43.037L32.0772 43.0367C32.6906 42.3441 33.5341 41.9384 34.4584 41.8924C35.3942 41.8501 36.2638 42.1665 36.944 42.7931L36.9448 42.7939L37.4979 43.3011C37.4982 43.3014 37.4985 43.3016 37.4988 43.3019C38.2027 43.9521 39.155 44.2393 40.0936 44.0965L40.0939 44.0965C41.0379 43.9523 41.8567 43.3955 42.3367 42.5667C42.3767 42.499 42.459 42.4766 42.5281 42.5153C42.5935 42.5538 42.6159 42.6384 42.578 42.7042C42.056 43.6076 41.1669 44.2141 40.1377 44.3715C39.1063 44.5265 38.0769 44.2122 37.3126 43.5069L37.3115 43.5059L36.7589 42.9991C36.7586 42.9988 36.7583 42.9985 36.7579 42.9982C36.1353 42.4216 35.3124 42.126 34.475 42.1714C33.6286 42.2142 32.85 42.5874 32.288 43.2222L31.9791 43.5708L31.9786 43.5713C31.452 44.167 30.7275 44.5616 29.9401 44.6807L29.9399 44.6808L28.596 44.8847C28.5748 44.8868 28.564 44.8872 28.5583 44.8872C28.4915 44.8872 28.4329 44.8371 28.4229 44.7704Z"></path>
<path stroke-width="0.8" stroke="black" fill="black" d="M55.3563 9.43796C55.4042 9.45659 55.4996 9.52524 55.5861 9.77887C55.6711 10.0281 55.724 10.3932 55.7317 10.8807C55.7468 11.8516 55.5815 13.2095 55.2445 14.8673C54.5719 18.1766 53.2315 22.6051 51.3798 27.3638C49.5282 32.1225 47.523 36.2924 45.7821 39.186C44.91 40.6356 44.1141 41.7481 43.4467 42.4535C43.1116 42.8076 42.8258 43.0409 42.5947 43.1671C42.3596 43.2956 42.2429 43.2817 42.195 43.2631C42.1471 43.2445 42.0517 43.1758 41.9652 42.9222C41.8803 42.673 41.8273 42.3078 41.8197 41.8204C41.8045 40.8494 41.9699 39.4916 42.3068 37.8337C42.9795 34.5245 44.3199 30.096 46.1715 25.3372C48.0231 20.5785 50.0283 16.4087 51.7692 13.5151C52.6413 12.0655 53.4372 10.953 54.1046 10.2476C54.4397 9.89348 54.7255 9.66019 54.9566 9.53393C55.1917 9.40544 55.3085 9.41933 55.3563 9.43796Z"></path>
<path stroke-width="0.8" stroke="black" fill="black" d="M46.8629 21.8002L46.8629 21.8001C48.4328 17.766 50.2731 14.2145 51.957 11.7752C52.8007 10.5528 53.5926 9.62844 54.2781 9.06064C54.621 8.77665 54.9213 8.59537 55.1739 8.50425C55.4232 8.41433 55.6021 8.41988 55.7339 8.47095C55.8653 8.5223 56.0007 8.63903 56.1236 8.87386C56.2481 9.11177 56.3468 9.44839 56.4075 9.88947C56.5288 10.7713 56.4875 11.9879 56.2831 13.459C55.8753 16.395 54.8312 20.2562 53.2612 24.2904C53.1417 24.5967 52.8076 24.8104 52.1204 24.8181C51.4448 24.8256 50.5572 24.6227 49.5945 24.248C48.6317 23.8732 47.8399 23.4228 47.3468 22.9606C46.8451 22.4903 46.7435 22.1069 46.8629 21.8002Z"></path>
</g>
<defs>
<clipPath id="clip0_1956_12942">
<rect fill="white" height="64" width="64"></rect>
</clipPath>
</defs>
</svg>
