<svg xmlns="http://www.w3.org/2000/svg" fill="none" viewBox="0 0 64 64" height="64" width="64">
<g clip-path="url(#clip0_1956_12920)">
<path stroke="black" fill="#FFE6C9" d="M55.5 50.6667C55.5 51.957 55.0141 53.1894 54.1571 54.094C53.301 54.9977 52.1458 55.5 50.9474 55.5H13.0526C11.8542 55.5 10.699 54.9977 9.84286 54.094C8.98586 53.1894 8.5 51.957 8.5 50.6667V13.3333C8.5 12.043 8.98586 10.8106 9.84286 9.90597C10.699 9.00228 11.8542 8.5 13.0526 8.5H50.9474C52.1458 8.5 53.301 9.00228 54.1571 9.90597C55.0141 10.8106 55.5 12.043 55.5 13.3333V50.6667Z"></path>
<path stroke="black" fill="#EE5A29" d="M48.6174 36.4125H27.7052C27.3507 36.4125 26.9855 36.2717 26.6833 35.9695L23.0482 32.3344C22.8505 32.1367 22.8505 31.8638 23.0482 31.666L26.6833 28.0309C26.9855 27.7287 27.3507 27.5879 27.7052 27.5879H48.6174C48.7986 27.5879 48.9106 27.6461 48.9762 27.7116C49.0417 27.7772 49.0999 27.8892 49.0999 28.0704V35.9301C49.0999 36.1112 49.0417 36.2232 48.9762 36.2888C48.9106 36.3543 48.7986 36.4125 48.6174 36.4125Z"></path>
<path fill="#212121" d="M16.5439 16.2803H18.1439V47.7208H16.5439V16.2803Z"></path>
<path fill="#212121" d="M17.3473 15.2002C16.5656 15.2002 15.8159 15.5107 15.2632 16.0635C14.7104 16.6162 14.3999 17.3659 14.3999 18.1476C14.3999 18.9293 14.7104 19.679 15.2632 20.2317C15.8159 20.7844 16.5656 21.095 17.3473 21.095C18.129 21.095 18.8787 20.7844 19.4314 20.2317C19.9841 19.679 20.2947 18.9293 20.2947 18.1476C20.2947 17.3659 19.9841 16.6162 19.4314 16.0635C18.8787 15.5107 18.129 15.2002 17.3473 15.2002ZM17.3473 28.9547C16.5656 28.9547 15.8159 29.2652 15.2632 29.8179C14.7104 30.3707 14.3999 31.1204 14.3999 31.9021C14.3999 32.6838 14.7104 33.4334 15.2632 33.9862C15.8159 34.5389 16.5656 34.8494 17.3473 34.8494C18.129 34.8494 18.8787 34.5389 19.4314 33.9862C19.9841 33.4334 20.2947 32.6838 20.2947 31.9021C20.2947 31.1204 19.9841 30.3707 19.4314 29.8179C18.8787 29.2652 18.129 28.9547 17.3473 28.9547ZM17.3473 42.7091C16.5656 42.7091 15.8159 43.0197 15.2632 43.5724C14.7104 44.1252 14.3999 44.8748 14.3999 45.6565C14.3999 46.4382 14.7104 47.1879 15.2632 47.7406C15.8159 48.2934 16.5656 48.6039 17.3473 48.6039C18.129 48.6039 18.8787 48.2934 19.4314 47.7406C19.9841 47.1879 20.2947 46.4382 20.2947 45.6565C20.2947 44.8748 19.9841 44.1252 19.4314 43.5724C18.8787 43.0197 18.129 42.7091 17.3473 42.7091Z"></path>
<path stroke="black" fill="#F8AD40" d="M40.6174 50.1674H27.7052C27.3507 50.1674 26.9855 50.0266 26.6833 49.7244L23.0482 46.0893C22.8505 45.8915 22.8505 45.6186 23.0482 45.4209L26.6833 41.7858C26.9855 41.4836 27.3507 41.3428 27.7052 41.3428H40.6174C40.7986 41.3428 40.9106 41.401 40.9762 41.4665C41.0417 41.532 41.0999 41.6441 41.0999 41.8252V49.6849C41.0999 49.866 41.0417 49.9781 40.9762 50.0437C40.9106 50.1092 40.7986 50.1674 40.6174 50.1674Z"></path>
<path stroke="black" fill="#F8AD40" d="M42.2174 22.6576H27.7052C27.3507 22.6576 26.9855 22.5168 26.6833 22.2146L23.0482 18.5795C22.8505 18.3818 22.8505 18.1089 23.0482 17.9111L26.6833 14.276C26.9855 13.9738 27.3507 13.833 27.7052 13.833H42.2174C42.3986 13.833 42.5106 13.8912 42.5762 13.9567C42.6417 14.0223 42.6999 14.1344 42.6999 14.3155V22.1752C42.6999 22.3563 42.6417 22.4684 42.5762 22.5339C42.5106 22.5994 42.3986 22.6576 42.2174 22.6576Z"></path>
</g>
<defs>
<clipPath id="clip0_1956_12920">
<rect fill="white" height="64" width="64"></rect>
</clipPath>
</defs>
</svg>
