<svg xmlns="http://www.w3.org/2000/svg" fill="none" viewBox="0 0 64 64" height="64" width="64">
<g clip-path="url(#clip0_1956_12992)">
<path stroke-width="0.8" stroke="black" fill="#FFE6C9" d="M45.2465 55.5997H18.6419C12.9951 55.5997 8.4 51.0046 8.4 45.3578V18.7532C8.4 13.1064 12.9951 8.51133 18.6419 8.51133H45.2465C50.8933 8.51133 55.4884 13.1064 55.4884 18.7532V45.3578C55.4884 51.0046 50.8933 55.5997 45.2465 55.5997Z"></path>
<path fill="#FFE6C9" d="M56 50.6667C56 52.0812 55.4677 53.4377 54.5201 54.4379C53.5726 55.4381 52.2874 56 50.9474 56H13.0526C11.7126 56 10.4274 55.4381 9.47988 54.4379C8.53233 53.4377 8 52.0812 8 50.6667V13.3333C8 11.9188 8.53233 10.5623 9.47988 9.5621C10.4274 8.5619 11.7126 8 13.0526 8H50.9474C52.2874 8 53.5726 8.5619 54.5201 9.5621C55.4677 10.5623 56 11.9188 56 13.3333V50.6667Z"></path>
<circle stroke="#F8AD40" r="18.5326" cy="32.054" cx="31.9442"></circle>
<path stroke="#F8AD40" d="M41.8815 32.0544C41.8815 37.5426 37.4325 41.9916 31.9443 41.9916C26.4561 41.9916 22.0071 37.5426 22.0071 32.0544C22.0071 26.5662 26.4561 22.1172 31.9443 22.1172C37.4325 22.1172 41.8815 26.5662 41.8815 32.0544Z"></path>
<line stroke="#F8AD40" y2="53.6643" x2="54.2601" y1="9.7402" x1="10.336"></line>
<line stroke="#F8AD40" y2="54.3714" x2="10.3357" y1="10.4473" x1="54.2598"></line>
<path stroke="black" d="M55.5 50.6667C55.5 51.957 55.0141 53.1894 54.1571 54.094C53.301 54.9977 52.1458 55.5 50.9474 55.5H13.0526C11.8542 55.5 10.699 54.9977 9.84286 54.094C8.98586 53.1894 8.5 51.957 8.5 50.6667V13.3333C8.5 12.043 8.98586 10.8106 9.84286 9.90597C10.699 9.00228 11.8542 8.5 13.0526 8.5H50.9474C52.1458 8.5 53.301 9.00228 54.1571 9.90597C55.0141 10.8106 55.5 12.043 55.5 13.3333V50.6667Z"></path>
<path stroke="black" fill="#EE5A29" d="M60.3 15.7402C60.3 22.3899 54.9084 27.7802 48.26 27.7802C41.6103 27.7802 36.22 22.3899 36.22 15.7402C36.22 9.0905 41.6103 3.7002 48.26 3.7002C54.9084 3.7002 60.3 9.09053 60.3 15.7402Z"></path>
<path fill="black" d="M47.75 8V9.58062C45.9392 10.0607 44.6 11.7475 44.6 13.76V18.08L43.2 19.52V20.24H54.4V19.52L53 18.08V13.76C53 11.7475 51.6607 10.0607 49.85 9.58062V8H47.75ZM47.4 20.96C47.4 21.752 48.03 22.4 48.8 22.4C49.57 22.4 50.2 21.752 50.2 20.96H47.4Z"></path>
</g>
<defs>
<clipPath id="clip0_1956_12992">
<rect fill="white" height="64" width="64"></rect>
</clipPath>
</defs>
</svg>
