<svg width="16" height="16" viewBox="0 0 16 16" fill="none" xmlns="http://www.w3.org/2000/svg">
<path d="M8 0C3.6 0 0 3.6 0 8C0 12.4 3.6 16 8 16C12.4 16 16 12.4 16 8C16 3.6 12.4 0 8 0ZM13.52 4.8H11.2C10.96 3.76 10.56 2.88 10.08 1.92C11.52 2.48 12.8 3.44 13.52 4.8ZM8 1.6C8.64 2.56 9.2 3.6 9.52 4.8H6.48C6.8 3.68 7.36 2.56 8 1.6ZM1.84 9.6C1.68 9.12 1.6 8.56 1.6 8C1.6 7.44 1.68 6.88 1.84 6.4H4.56C4.48 6.96 4.48 7.44 4.48 8C4.48 8.56 4.56 9.04 4.56 9.6H1.84ZM2.48 11.2H4.8C5.04 12.24 5.44 13.12 5.92 14.08C4.48 13.52 3.2 12.56 2.48 11.2ZM4.8 4.8H2.48C3.28 3.44 4.48 2.48 5.92 1.92C5.44 2.88 5.04 3.76 4.8 4.8ZM8 14.4C7.36 13.44 6.8 12.4 6.48 11.2H9.52C9.2 12.32 8.64 13.44 8 14.4ZM9.84 9.6H6.16C6.08 9.04 6 8.56 6 8C6 7.44 6.08 6.96 6.16 6.4H9.92C10 6.96 10.08 7.44 10.08 8C10.08 8.56 9.92 9.04 9.84 9.6ZM10.08 14.08C10.56 13.2 10.96 12.24 11.2 11.2H13.52C12.8 12.56 11.52 13.52 10.08 14.08ZM11.52 9.6C11.6 9.04 11.6 8.56 11.6 8C11.6 7.44 11.52 6.96 11.52 6.4H14.24C14.4 6.88 14.48 7.44 14.48 8C14.48 8.56 14.4 9.12 14.24 9.6H11.52Z" fill="#949DB0"/>
</svg>
